<svg width="427" height="124" viewBox="0 0 427 124" xmlns="http://www.w3.org/2000/svg" xmlns:xlink="http://www.w3.org/1999/xlink"><title>Page 1</title><defs><path id="a" d="M0 102.345V.177h131.98v102.168H0z"/></defs><g fill="none" fill-rule="evenodd"><path d="M254.434 96.9c-8.733 0-19.152-3.718-19.152-21.425V4.259c0-2.706 1.547-4.258 4.254-4.258h10.104c2.703 0 4.25 1.552 4.25 4.258V74.59c0 6.161 1.515 8.104 1.888 8.261l.802-.015c2.747 0 4.256 1.508 4.256 4.253v5.558c0 2.744-1.509 4.252-4.256 4.252h-2.146zm19.03-78.291c-2.704 0-4.254-1.547-4.254-4.25V4.257c0-2.706 1.55-4.256 4.254-4.256h10.103c2.705 0 4.255 1.55 4.255 4.256V14.36c0 2.744-1.507 4.25-4.255 4.25h-10.103zm0 78.291c-2.704 0-4.254-1.548-4.254-4.253v-60.61c0-2.704 1.55-4.252 4.254-4.252h10.103c2.748 0 4.255 1.507 4.255 4.251v60.611c0 2.745-1.507 4.253-4.255 4.253h-10.103zm50.952 0c-2.338 0-4-1.055-5.082-3.227l-22.676-61.287c-.581-1.142-.627-2.274-.055-3.192.58-.936 1.652-1.41 3.192-1.41h11.616c2.5 0 4.202 1.247 4.93 3.613l12.114 42.34 12.104-42.303c.37-1.619 1.548-3.65 4.944-3.65h11.619c1.937 0 2.791.913 3.127 1.46.397.65.712 1.75-.068 3.312l-22.527 60.946c-1.16 2.343-2.825 3.398-5.159 3.398h-8.08zm71.292-55.021c-9.165 0-13.073 6.11-13.073 20.431 0 14.235 3.908 20.31 13.073 20.31 9.159 0 13.07-6.075 13.07-20.31 0-14.32-3.911-20.431-13.07-20.431m0 54.908c-20.763 0-30.86-11.236-30.86-34.356 0-23.361 10.097-34.718 30.86-34.718 20.473 0 30.855 11.637 30.855 34.597 0 23.2-10.092 34.477-30.855 34.477" fill="#424243"/><path d="M57.352 55.187a2.887 2.887 0 0 1-2.881 2.877h-5.8a2.89 2.89 0 0 1-2.884-2.877v-5.799c0-1.585 1.3-2.885 2.884-2.885h5.8c1.585 0 2.881 1.3 2.881 2.885v5.799zm16.431 0a2.89 2.89 0 0 1-2.881 2.877h-5.804a2.883 2.883 0 0 1-2.875-2.877v-5.799a2.888 2.888 0 0 1 2.875-2.885h5.804c1.58 0 2.881 1.3 2.881 2.885v5.799z" fill="#419F47"/><path d="M90.213 55.187a2.887 2.887 0 0 1-2.881 2.877h-5.8a2.886 2.886 0 0 1-2.881-2.877v-5.799a2.891 2.891 0 0 1 2.881-2.885h5.8c1.586 0 2.881 1.3 2.881 2.885v5.799z" fill="#424243"/><path d="M57.352 71.616a2.89 2.89 0 0 1-2.881 2.883h-5.8a2.893 2.893 0 0 1-2.884-2.883v-5.8c0-1.58 1.3-2.879 2.884-2.879h5.8a2.89 2.89 0 0 1 2.881 2.88v5.799zm16.431 0a2.893 2.893 0 0 1-2.881 2.883h-5.804a2.886 2.886 0 0 1-2.875-2.883v-5.8a2.886 2.886 0 0 1 2.875-2.879h5.804a2.893 2.893 0 0 1 2.881 2.88v5.799z" fill="#419F47"/><path d="M90.213 71.616a2.89 2.89 0 0 1-2.881 2.883h-5.8a2.89 2.89 0 0 1-2.881-2.883v-5.8a2.89 2.89 0 0 1 2.881-2.879h5.8a2.89 2.89 0 0 1 2.881 2.88v5.799z" fill="#424243"/><path d="M57.352 88.053a2.887 2.887 0 0 1-2.881 2.877h-5.8a2.89 2.89 0 0 1-2.884-2.877v-5.808a2.89 2.89 0 0 1 2.884-2.875h5.8a2.887 2.887 0 0 1 2.881 2.875v5.808z" fill="#419F47"/><path d="M73.783 88.053a2.89 2.89 0 0 1-2.881 2.877h-5.804a2.883 2.883 0 0 1-2.875-2.877v-5.808a2.883 2.883 0 0 1 2.875-2.875h5.804a2.89 2.89 0 0 1 2.881 2.875v5.808zm16.43 0a2.887 2.887 0 0 1-2.881 2.877h-5.8a2.886 2.886 0 0 1-2.881-2.877v-5.808a2.886 2.886 0 0 1 2.881-2.875h5.8a2.887 2.887 0 0 1 2.881 2.875v5.808z" fill="#424243"/><g transform="translate(0 10.259)"><mask id="b" fill="#fff"><use xlink:href="#a"/></mask><path d="M98.93 90.928H36.494c-13.827 0-25.078-11.25-25.078-25.078a24.985 24.985 0 0 1 19.125-24.327l6.1-1.486 2.013-5.948a31.868 31.868 0 0 1 30.207-21.675c16.034 0 29.63 11.978 31.628 27.862l.819 6.522 6.052 2.567a21.607 21.607 0 0 1 13.2 19.93c0 11.929-9.704 21.633-21.632 21.633m12.888-52.075C109.134 17.509 90.933.997 68.862.997 53.191.997 39.477 9.33 31.877 21.8V5.886a5.71 5.71 0 1 0-11.418 0v27.22C8.35 39.036 0 51.453 0 65.85c0 20.157 16.34 36.495 36.496 36.495H98.93c18.254 0 33.051-14.798 33.051-33.05 0-13.68-8.313-25.42-20.163-30.442" fill="#419F47" mask="url(#b)"/></g><path d="M196.837 84.057c-6.568 0-15.303-2.231-15.303-21.528 0-18.755 8.113-21.16 15.18-21.16 6.392 0 12.127 1.616 12.127 21.16 0 19.866-5.93 21.528-12.004 21.528m2.442-56.292c-7.146 0-13.078 1.685-17.765 4.961v-.8c0-2.61-1.496-4.106-4.111-4.106h-9.753c-2.653 0-4.11 1.458-4.11 4.106v87.014c0 2.614 1.497 4.111 4.117 4.111h9.763c2.658 0 4.114-1.46 4.114-4.111V91.444c4.197 4.126 10.019 6.21 17.376 6.21 10.43 0 27.927-4.561 27.927-35.125 0-30.246-17.263-34.764-27.558-34.764" fill="#434344"/></g></svg>